<?xml version="1.0" encoding="UTF-8" standalone="no"?><!-- Generator: Gravit.io --><svg xmlns="http://www.w3.org/2000/svg" xmlns:xlink="http://www.w3.org/1999/xlink" style="isolation:isolate" viewBox="0 0 9.519 12" width="9.519pt" height="12pt"><defs><clipPath id="_clipPath_ctOnuQBiZQw10RYU5A4dpb1v9B4Ea1tB"><rect width="9.519" height="12"/></clipPath></defs><g clip-path="url(#_clipPath_ctOnuQBiZQw10RYU5A4dpb1v9B4Ea1tB)"><clipPath id="_clipPath_vXxgnigfBAp9k1moLGwNxneNCvHrodRG"><rect x="0" y="0" width="9.519" height="12" transform="matrix(1,0,0,1,0,0)" fill="rgb(255,255,255)"/></clipPath><g clip-path="url(#_clipPath_vXxgnigfBAp9k1moLGwNxneNCvHrodRG)"><g><path d=" M 4.488 0.054 C 4.422 0.087 3.392 1.084 2.208 2.272 C -0.128 4.615 -0.048 4.52 0.027 4.903 C 0.064 5.107 0.314 5.358 0.519 5.395 C 0.894 5.467 0.861 5.491 2.508 3.848 C 3.345 3.014 4.047 2.331 4.063 2.331 C 4.08 2.331 4.092 4.39 4.092 6.905 C 4.092 11.391 4.092 11.479 4.176 11.65 C 4.401 12.117 5.118 12.117 5.343 11.65 C 5.427 11.479 5.427 11.391 5.427 6.905 C 5.427 4.39 5.439 2.331 5.456 2.331 C 5.472 2.331 6.173 3.014 7.011 3.848 C 8.658 5.491 8.625 5.467 9 5.395 C 9.204 5.358 9.455 5.107 9.492 4.903 C 9.567 4.52 9.646 4.615 7.311 2.272 C 6.077 1.038 5.097 0.087 5.022 0.054 C 4.855 -0.017 4.651 -0.017 4.488 0.054 Z " fill="rgb(233,87,63)"/></g></g></g></svg>