<?xml version="1.0" encoding="UTF-8" standalone="no"?><!-- Generator: Gravit.io --><svg xmlns="http://www.w3.org/2000/svg" xmlns:xlink="http://www.w3.org/1999/xlink" style="isolation:isolate" viewBox="0 0 18.001 12" width="18.001pt" height="12pt"><defs><clipPath id="_clipPath_6WEZvAO1JFKgfeDqHCNxmTXqDEQ3uaJj"><rect width="18.001" height="12"/></clipPath></defs><g clip-path="url(#_clipPath_6WEZvAO1JFKgfeDqHCNxmTXqDEQ3uaJj)"><clipPath id="_clipPath_6ine11MMmIXJizF1iuxsbuBvhpKfAeeY"><rect x="0" y="0" width="18.001" height="12" transform="matrix(1,0,0,1,0,0)" fill="rgb(255,255,255)"/></clipPath><g clip-path="url(#_clipPath_6ine11MMmIXJizF1iuxsbuBvhpKfAeeY)"><g><path d=" M 15.938 12 L 5.626 12 C 5.47 12 5.321 11.935 5.214 11.821 L 0.152 6.383 C -0.05 6.167 -0.05 5.833 0.152 5.617 L 5.214 0.179 C 5.321 0.065 5.47 0 5.626 0 L 15.938 0 C 17.076 0 18.001 0.925 18.001 2.063 L 18.001 9.938 C 18.001 11.075 17.076 12 15.938 12 L 15.938 12 L 15.938 12 Z  M 5.87 10.875 L 15.938 10.875 C 16.455 10.875 16.876 10.454 16.876 9.938 L 16.876 2.063 C 16.876 1.546 16.455 1.125 15.938 1.125 L 5.87 1.125 L 1.331 6 L 5.87 10.875 L 5.87 10.875 Z " fill="rgb(233,87,63)"/><path d=" M 14.063 9.188 C 13.913 9.188 13.763 9.127 13.651 9.008 L 8.776 3.758 C 8.565 3.53 8.578 3.174 8.805 2.963 C 9.033 2.752 9.388 2.764 9.601 2.993 L 14.476 8.242 C 14.687 8.47 14.674 8.826 14.447 9.038 C 14.338 9.138 14.201 9.188 14.063 9.188 Z " fill="rgb(233,87,63)"/><path d=" M 9.188 9.188 C 9.051 9.188 8.914 9.138 8.805 9.038 C 8.578 8.826 8.565 8.47 8.776 8.242 L 13.651 2.993 C 13.863 2.765 14.219 2.752 14.447 2.963 C 14.674 3.174 14.687 3.53 14.476 3.758 L 9.601 9.008 C 9.489 9.127 9.339 9.188 9.188 9.188 L 9.188 9.188 L 9.188 9.188 Z " fill="rgb(233,87,63)"/></g></g></g></svg>