<?xml version="1.0" encoding="UTF-8" standalone="no"?><!-- Generator: Gravit.io --><svg xmlns="http://www.w3.org/2000/svg" xmlns:xlink="http://www.w3.org/1999/xlink" style="isolation:isolate" viewBox="0 0 12.017 12" width="12.017pt" height="12pt"><defs><clipPath id="_clipPath_WN7vbmv6TSwixsuGgJq8efZI8h1JYWam"><rect width="12.017" height="12"/></clipPath></defs><g clip-path="url(#_clipPath_WN7vbmv6TSwixsuGgJq8efZI8h1JYWam)"><clipPath id="_clipPath_41QGEfYaOlva2nZSj5aMlL28ZyJNKlU1"><rect x="0" y="0" width="12.017" height="12" transform="matrix(1,0,0,1,0,0)" fill="rgb(255,255,255)"/></clipPath><g clip-path="url(#_clipPath_41QGEfYaOlva2nZSj5aMlL28ZyJNKlU1)"><g><path d=" M 2.501 9.874 C 2.405 9.874 2.309 9.837 2.236 9.764 C 2.089 9.617 2.089 9.379 2.236 9.232 L 8.795 2.674 C 8.941 2.527 9.179 2.527 9.326 2.674 C 9.473 2.82 9.473 3.058 9.326 3.205 L 2.767 9.764 C 2.694 9.837 2.597 9.874 2.501 9.874 Z " fill="rgb(0,0,0)"/><path d=" M 0.375 12 C 0.277 12 0.18 11.961 0.11 11.89 C 0.021 11.801 -0.017 11.674 0.007 11.551 L 0.716 8.01 C 0.73 7.937 0.766 7.87 0.818 7.818 L 8.114 0.523 C 8.81 -0.174 10.025 -0.174 10.723 0.523 L 11.477 1.277 C 12.197 1.996 12.197 3.166 11.477 3.886 L 4.182 11.181 C 4.13 11.234 4.063 11.269 3.99 11.284 L 0.449 11.992 C 0.425 11.997 0.4 12 0.375 12 Z  M 1.429 8.268 L 0.854 11.146 L 3.731 10.57 L 10.946 3.355 C 11.372 2.929 11.372 2.235 10.946 1.808 L 10.192 1.054 C 9.777 0.64 9.056 0.641 8.644 1.054 L 1.429 8.268 Z  M 3.916 10.916 L 3.921 10.916 L 3.916 10.916 Z " fill="rgb(0,0,0)"/><path d=" M 3.916 11.291 C 3.82 11.291 3.724 11.255 3.651 11.181 L 0.818 8.349 C 0.672 8.202 0.672 7.965 0.818 7.818 C 0.965 7.671 1.203 7.671 1.35 7.818 L 4.182 10.65 C 4.329 10.797 4.329 11.035 4.182 11.181 C 4.108 11.255 4.013 11.291 3.916 11.291 Z " fill="rgb(0,0,0)"/><path d=" M 10.477 4.731 C 10.38 4.731 10.284 4.694 10.211 4.621 L 7.379 1.788 C 7.232 1.642 7.232 1.404 7.379 1.257 C 7.526 1.11 7.764 1.11 7.91 1.257 L 10.743 4.089 C 10.889 4.236 10.889 4.474 10.743 4.621 C 10.669 4.694 10.573 4.731 10.477 4.731 Z " fill="rgb(0,0,0)"/></g></g></g></svg>