<?xml version="1.0" encoding="UTF-8" standalone="no"?><!-- Generator: Gravit.io --><svg xmlns="http://www.w3.org/2000/svg" xmlns:xlink="http://www.w3.org/1999/xlink" style="isolation:isolate" viewBox="0 0 12 12" width="12pt" height="12pt"><defs><clipPath id="_clipPath_Su2AJ6lPyTQyBOcvgx6NRuGu63WOetdK"><rect width="12" height="12"/></clipPath></defs><g clip-path="url(#_clipPath_Su2AJ6lPyTQyBOcvgx6NRuGu63WOetdK)"><clipPath id="_clipPath_UqnXMhQ3CLX5GXuiT7KenXXT7wogu6Z5"><rect x="0" y="0" width="12" height="12" transform="matrix(1,0,0,1,0,0)" fill="rgb(255,255,255)"/></clipPath><g clip-path="url(#_clipPath_UqnXMhQ3CLX5GXuiT7KenXXT7wogu6Z5)"><g><path d=" M 4.8 9.6 C 2.152 9.6 0 7.447 0 4.8 C 0 2.152 2.152 0 4.8 0 C 7.447 0 9.6 2.152 9.6 4.8 C 9.6 7.447 7.447 9.6 4.8 9.6 Z  M 4.8 1.2 C 2.815 1.2 1.2 2.815 1.2 4.8 C 1.2 6.784 2.815 8.4 4.8 8.4 C 6.784 8.4 8.4 6.784 8.4 4.8 C 8.4 2.815 6.784 1.2 4.8 1.2 Z " fill="rgb(233,87,63)"/><path d=" M 11.4 12 C 11.245 12 11.092 11.941 10.975 11.823 L 7.344 8.192 C 7.108 7.957 7.108 7.578 7.344 7.342 C 7.578 7.108 7.958 7.108 8.192 7.342 L 11.824 10.975 C 12.058 11.209 12.058 11.589 11.824 11.823 C 11.707 11.941 11.553 12 11.4 12 Z " fill="rgb(233,87,63)"/></g></g></g></svg>