<?xml version="1.0" encoding="UTF-8" standalone="no"?><!-- Generator: Gravit.io --><svg xmlns="http://www.w3.org/2000/svg" xmlns:xlink="http://www.w3.org/1999/xlink" style="isolation:isolate" viewBox="0 0 16.696 16" width="16.696pt" height="16pt"><defs><clipPath id="_clipPath_rHGfEM99zLw7UAzXFdN6yFowtNgM7skm"><rect x="0" y="0" width="16.696" height="16"/></clipPath></defs><g clip-path="url(#_clipPath_rHGfEM99zLw7UAzXFdN6yFowtNgM7skm)"><path d=" M 16.652 6.045 C 16.542 5.707 16.242 5.468 15.889 5.436 L 11.069 4.999 L 9.165 0.539 C 9.024 0.211 8.704 0 8.348 0 C 7.992 0 7.671 0.211 7.532 0.539 L 5.627 4.999 L 0.807 5.436 C 0.453 5.469 0.154 5.708 0.043 6.045 C -0.067 6.384 0.035 6.754 0.302 6.989 L 3.946 10.183 L 2.871 14.915 C 2.793 15.263 2.928 15.622 3.216 15.831 C 3.372 15.944 3.554 16 3.737 16 C 3.894 16 4.051 15.958 4.192 15.874 L 8.348 13.389 L 12.503 15.874 C 12.808 16.056 13.191 16.04 13.479 15.831 C 13.768 15.622 13.903 15.263 13.824 14.915 L 12.75 10.183 L 16.393 6.989 C 16.66 6.754 16.762 6.384 16.652 6.045 L 16.652 6.045 Z " fill="rgb(246,187,66)"/></g></svg>