<?xml version="1.0" encoding="UTF-8" standalone="no"?><!-- Generator: Gravit.io --><svg xmlns="http://www.w3.org/2000/svg" xmlns:xlink="http://www.w3.org/1999/xlink" style="isolation:isolate" viewBox="0 0 11 12" width="11pt" height="12pt"><defs><clipPath id="_clipPath_QfLkBsyWBgjmrz1ksvT45XQxs5xnbfMx"><rect x="0" y="0" width="11" height="12"/></clipPath></defs><g clip-path="url(#_clipPath_QfLkBsyWBgjmrz1ksvT45XQxs5xnbfMx)"><clipPath id="_clipPath_MOxdYaqxELkGElopovodUQ22y8I7yFLg"><rect x="0" y="0" width="11" height="12" transform="matrix(1,0,0,1,0,0)" fill="rgb(255,255,255)"/></clipPath><g clip-path="url(#_clipPath_MOxdYaqxELkGElopovodUQ22y8I7yFLg)"><g><clipPath id="_clipPath_xAQ2x372u85OozxSN4hWqAUtVOMQoIIe"><rect x="0" y="0" width="11" height="12" transform="matrix(1,0,0,1,0,0)" fill="rgb(255,255,255)"/></clipPath><g clip-path="url(#_clipPath_xAQ2x372u85OozxSN4hWqAUtVOMQoIIe)"><g><g><path d=" M 8.625 12 L 2.375 12 C 1.616 12 1 11.384 1 10.625 L 1 3.875 C 1 3.668 1.168 3.5 1.375 3.5 L 9.625 3.5 C 9.832 3.5 10 3.668 10 3.875 L 10 10.625 C 10 11.384 9.383 12 8.625 12 Z  M 1.75 4.25 L 1.75 10.625 C 1.75 10.97 2.03 11.25 2.375 11.25 L 8.625 11.25 C 8.969 11.25 9.25 10.97 9.25 10.625 L 9.25 4.25 L 1.75 4.25 L 1.75 4.25 Z " fill="rgb(0,0,0)"/><path d=" M 10.625 4.25 L 0.375 4.25 C 0.168 4.25 0 4.082 0 3.875 L 0 2.875 C 0 2.117 0.616 1.5 1.375 1.5 L 9.625 1.5 C 10.384 1.5 11 2.117 11 2.875 L 11 3.875 C 11 4.082 10.832 4.25 10.625 4.25 Z  M 0.75 3.5 L 10.25 3.5 L 10.25 2.875 C 10.25 2.531 9.97 2.25 9.625 2.25 L 1.375 2.25 C 1.031 2.25 0.75 2.531 0.75 2.875 L 0.75 3.5 L 0.75 3.5 Z " fill="rgb(0,0,0)"/><path d=" M 7.125 2.25 L 3.875 2.25 C 3.668 2.25 3.5 2.082 3.5 1.875 L 3.5 0.875 C 3.5 0.392 3.893 0 4.375 0 L 6.625 0 C 7.108 0 7.5 0.392 7.5 0.875 L 7.5 1.875 C 7.5 2.082 7.332 2.25 7.125 2.25 Z  M 4.25 1.5 L 6.75 1.5 L 6.75 0.875 C 6.75 0.806 6.694 0.75 6.625 0.75 L 4.375 0.75 C 4.306 0.75 4.25 0.806 4.25 0.875 L 4.25 1.5 L 4.25 1.5 Z " fill="rgb(0,0,0)"/><path d=" M 3.375 10 C 3.168 10 3 9.832 3 9.625 L 3 5.875 C 3 5.668 3.168 5.5 3.375 5.5 C 3.582 5.5 3.75 5.668 3.75 5.875 L 3.75 9.625 C 3.75 9.832 3.582 10 3.375 10 Z " fill="rgb(0,0,0)"/><path d=" M 5.5 10 C 5.293 10 5.125 9.832 5.125 9.625 L 5.125 5.875 C 5.125 5.668 5.293 5.5 5.5 5.5 C 5.707 5.5 5.875 5.668 5.875 5.875 L 5.875 9.625 C 5.875 9.832 5.707 10 5.5 10 Z " fill="rgb(0,0,0)"/><path d=" M 7.625 10 C 7.418 10 7.25 9.832 7.25 9.625 L 7.25 5.875 C 7.25 5.668 7.418 5.5 7.625 5.5 C 7.832 5.5 8 5.668 8 5.875 L 8 9.625 C 8 9.832 7.832 10 7.625 10 Z " fill="rgb(0,0,0)"/></g></g></g></g></g></g></svg>